<?xml version="1.0" encoding="utf-8"?>
<!-- Generator: Adobe Illustrator 24.0.0, SVG Export Plug-In . SVG Version: 6.00 Build 0)  -->
<svg version="1.1" id="Layer_1" xmlns="http://www.w3.org/2000/svg" xmlns:xlink="http://www.w3.org/1999/xlink" x="0px" y="0px"
	 viewBox="0 0 315.1 81.11" style="enable-background:new 0 0 315.1 81.11;" xml:space="preserve">
<style type="text/css">
	.st0{display:none;fill:#58595B;}
	.st1{display:none;}
	.st2{display:inline;fill:#414042;}
	.st3{fill:#F68220;}
	.st4{fill-rule:evenodd;clip-rule:evenodd;fill:#FFFFFF;}
	.st5{fill-rule:evenodd;clip-rule:evenodd;fill:#F68220;}
	.st6{fill-rule:evenodd;clip-rule:evenodd;fill:#231F20;}
	.st7{fill:#FFFFFF;}
</style>
<g>
	<g>
		<path class="st7" d="M81.07,23.33c0-1.69,1.29-3.03,2.98-3.03s3.03,1.34,3.03,3.03v1.24c1.69-2.33,3.97-4.51,7.98-4.51
			c3.77,0,6.45,1.83,7.84,4.61c2.08-2.78,4.86-4.61,8.83-4.61c5.7,0,9.17,3.62,9.17,10.02v13.99c0,1.69-1.29,2.98-2.98,2.98
			s-3.03-1.29-3.03-2.98V31.91c0-4.17-1.93-6.4-5.31-6.4c-3.27,0-5.6,2.28-5.6,6.5v12.05c0,1.69-1.34,2.98-2.98,2.98
			c-1.69,0-3.03-1.29-3.03-2.98v-12.2c0-4.07-1.98-6.35-5.31-6.35s-5.6,2.48-5.6,6.5v12.05c0,1.69-1.34,2.98-3.03,2.98
			c-1.64,0-2.98-1.29-2.98-2.98V23.33z"/>
		<path class="st7" d="M140.19,47.38c-7.59,0-13.44-5.5-13.44-13.59v-0.1c0-7.49,5.31-13.64,12.8-13.64
			c8.33,0,12.45,6.84,12.45,12.89c0,1.69-1.29,2.88-2.83,2.88h-16.42c0.65,4.27,3.67,6.65,7.54,6.65c2.53,0,4.51-0.89,6.2-2.28
			c0.45-0.35,0.84-0.55,1.54-0.55c1.34,0,2.38,1.04,2.38,2.43c0,0.74-0.35,1.39-0.79,1.83C147.24,46.05,144.26,47.38,140.19,47.38z
			 M146.15,31.86c-0.4-3.87-2.68-6.89-6.65-6.89c-3.67,0-6.25,2.83-6.8,6.89H146.15z"/>
		<path class="st7" d="M158.15,23.33c0-1.69,1.29-3.03,2.98-3.03c1.69,0,3.03,1.34,3.03,3.03v2.68c1.39-3.27,3.97-5.75,6.6-5.75
			c1.88,0,2.98,1.24,2.98,2.98c0,1.59-1.04,2.63-2.38,2.88c-4.27,0.74-7.19,4.02-7.19,10.22v7.74c0,1.64-1.34,2.98-3.03,2.98
			c-1.64,0-2.98-1.29-2.98-2.98V23.33z"/>
		<path class="st7" d="M178.64,23.33c0-1.69,1.29-3.03,2.98-3.03s3.03,1.34,3.03,3.03v2.68c1.39-3.27,3.97-5.75,6.6-5.75
			c1.89,0,2.98,1.24,2.98,2.98c0,1.59-1.04,2.63-2.38,2.88c-4.27,0.74-7.19,4.02-7.19,10.22v7.74c0,1.64-1.34,2.98-3.03,2.98
			c-1.64,0-2.98-1.29-2.98-2.98V23.33z"/>
		<path class="st7" d="M199.72,54.13c-0.89-0.3-1.88-1.04-1.88-2.48c0-1.49,1.14-2.48,2.43-2.48c0.5,0,0.79,0.1,1.09,0.2
			c0.69,0.2,1.24,0.35,2.08,0.35c1.79,0,2.73-0.74,3.72-2.78l0.2-0.55l-9.72-21.72c-0.2-0.45-0.35-1.04-0.35-1.44
			c0-1.69,1.29-2.93,2.98-2.93c1.54,0,2.38,0.89,2.93,2.28L210.23,40l6.55-17.41c0.5-1.24,1.34-2.28,2.88-2.28
			c1.59,0,2.88,1.24,2.88,2.83c0,0.5-0.15,1.14-0.25,1.44l-9.57,22.96c-2.23,5.36-4.61,7.34-8.83,7.34
			C202.2,54.87,200.96,54.63,199.72,54.13z"/>
		<path class="st7" d="M228.24,13.31c0-1.69,1.29-2.98,2.98-2.98c1.69,0,3.03,1.29,3.03,2.98v11.65c1.93-2.73,4.66-4.91,8.93-4.91
			c6.15,0,12.15,4.86,12.15,13.59v0.1c0,8.68-5.95,13.59-12.15,13.59c-4.36,0-7.09-2.18-8.93-4.61v1.34c0,1.64-1.34,2.98-3.03,2.98
			c-1.64,0-2.98-1.34-2.98-2.98V13.31z M249.22,33.75v-0.1c0-5.06-3.42-8.38-7.49-8.38c-4.07,0-7.64,3.37-7.64,8.38v0.1
			c0,5.01,3.57,8.38,7.64,8.38C245.84,42.13,249.22,38.9,249.22,33.75z"/>
		<path class="st7" d="M273.52,47.38c-7.59,0-13.44-5.5-13.44-13.59v-0.1c0-7.49,5.31-13.64,12.8-13.64
			c8.33,0,12.45,6.84,12.45,12.89c0,1.69-1.29,2.88-2.83,2.88h-16.42c0.64,4.27,3.67,6.65,7.54,6.65c2.53,0,4.51-0.89,6.2-2.28
			c0.45-0.35,0.84-0.55,1.54-0.55c1.34,0,2.38,1.04,2.38,2.43c0,0.74-0.35,1.39-0.79,1.83C280.56,46.05,277.59,47.38,273.52,47.38z
			 M279.47,31.86c-0.4-3.87-2.68-6.89-6.65-6.89c-3.67,0-6.25,2.83-6.79,6.89H279.47z"/>
		<path class="st7" d="M292.72,39.55V25.76h-0.99c-1.44,0-2.58-1.14-2.58-2.58s1.14-2.58,2.58-2.58h0.99v-4.46
			c0-1.64,1.34-2.98,3.03-2.98c1.64,0,2.97,1.34,2.97,2.98v4.46h4.71c1.44,0,2.63,1.14,2.63,2.58s-1.19,2.58-2.63,2.58h-4.71v12.85
			c0,2.33,1.19,3.27,3.22,3.27c0.7,0,1.29-0.15,1.49-0.15c1.34,0,2.53,1.09,2.53,2.48c0,1.09-0.74,1.98-1.59,2.33
			c-1.29,0.45-2.53,0.69-4.12,0.69C295.84,47.24,292.72,45.3,292.72,39.55z"/>
	</g>
	<g>
		<path class="st7" d="M180.36,68.04c-0.09,0.41-0.4,0.67-0.83,0.67c-0.44,0-0.72-0.32-0.64-0.7l0.04-0.18
			c0.09-0.4,0.4-0.67,0.83-0.67c0.44,0,0.72,0.32,0.64,0.7L180.36,68.04z"/>
		<path class="st7" d="M183.42,68.04c-0.09,0.41-0.4,0.67-0.83,0.67c-0.44,0-0.72-0.32-0.64-0.7l0.04-0.18
			c0.09-0.4,0.4-0.67,0.83-0.67c0.44,0,0.72,0.32,0.64,0.7L183.42,68.04z"/>
		<path class="st7" d="M186.49,68.04c-0.09,0.41-0.4,0.67-0.83,0.67c-0.44,0-0.72-0.32-0.64-0.7l0.04-0.18
			c0.09-0.4,0.4-0.67,0.83-0.67c0.44,0,0.72,0.32,0.64,0.7L186.49,68.04z"/>
		<path class="st7" d="M188,63.99c-0.01-0.09-0.02-0.23-0.02-0.31c0-0.33,0.31-0.61,0.65-0.61c0.37,0,0.63,0.21,0.64,0.55l0.16,3.27
			l1.97-3.33c0.18-0.31,0.41-0.5,0.74-0.5h0.06c0.33,0,0.54,0.19,0.56,0.51l0.19,3.32l2.04-3.44c0.13-0.23,0.33-0.4,0.61-0.4
			c0.32,0,0.51,0.19,0.51,0.48c0,0.12-0.06,0.27-0.12,0.37l-2.64,4.32c-0.19,0.32-0.46,0.51-0.82,0.51h-0.04
			c-0.35,0-0.56-0.2-0.59-0.59l-0.2-3.24l-1.98,3.3c-0.19,0.32-0.47,0.52-0.82,0.52h-0.04c-0.35,0-0.56-0.2-0.59-0.59L188,63.99z"/>
		<path class="st7" d="M201.14,68.08c-0.1,0.4-0.37,0.63-0.7,0.63c-0.42,0-0.65-0.3-0.51-0.82l0.62-2.3
			c0.05-0.18,0.08-0.4,0.08-0.55c0-0.55-0.36-0.87-0.96-0.87c-0.71,0-1.3,0.56-1.52,1.38l-0.68,2.53c-0.1,0.4-0.37,0.63-0.7,0.63
			c-0.42,0-0.65-0.3-0.51-0.82l1.67-6.3c0.12-0.4,0.38-0.63,0.71-0.63c0.42,0,0.65,0.3,0.51,0.82l-0.55,2.05
			c0.44-0.43,0.97-0.82,1.68-0.82c1.02,0,1.67,0.64,1.67,1.65c0,0.29-0.08,0.65-0.17,0.97L201.14,68.08z"/>
		<path class="st7" d="M206.66,67.41c0.12-0.06,0.26-0.13,0.4-0.13c0.27,0,0.48,0.2,0.48,0.49c0,0.18-0.09,0.33-0.24,0.43
			c-0.5,0.37-1.13,0.58-1.87,0.58c-1.54,0-2.51-0.93-2.51-2.42c0-1.63,1.33-3.35,3.25-3.35c1.42,0,2.21,0.94,2.21,2.14
			c0,0.21-0.03,0.43-0.06,0.61c-0.08,0.37-0.28,0.56-0.63,0.56h-3.56v0.1c0.03,0.78,0.52,1.31,1.42,1.31
			C205.99,67.75,206.37,67.61,206.66,67.41z M207.12,65.5c0.03-0.09,0.05-0.23,0.05-0.39c0-0.58-0.33-1.06-1.1-1.06
			c-0.86,0-1.55,0.62-1.82,1.44H207.12z"/>
		<path class="st7" d="M211.21,64.3c0.46-0.79,1.06-1.23,1.63-1.23c0.35,0,0.55,0.22,0.55,0.58c0,0.35-0.18,0.56-0.6,0.67
			c-1.04,0.23-1.83,0.94-2.2,2.3l-0.4,1.47c-0.12,0.4-0.38,0.63-0.71,0.63c-0.42,0-0.65-0.3-0.51-0.82l1.13-4.18
			c0.1-0.41,0.37-0.64,0.7-0.64c0.42,0,0.63,0.31,0.52,0.75L211.21,64.3z"/>
		<path class="st7" d="M217.19,67.41c0.12-0.06,0.26-0.13,0.4-0.13c0.27,0,0.48,0.2,0.48,0.49c0,0.18-0.09,0.33-0.24,0.43
			c-0.5,0.37-1.13,0.58-1.87,0.58c-1.54,0-2.51-0.93-2.51-2.42c0-1.63,1.33-3.35,3.25-3.35c1.42,0,2.21,0.94,2.21,2.14
			c0,0.21-0.03,0.43-0.06,0.61c-0.08,0.37-0.28,0.56-0.63,0.56h-3.56v0.1c0.03,0.78,0.52,1.31,1.42,1.31
			C216.52,67.75,216.9,67.61,217.19,67.41z M217.65,65.5c0.03-0.09,0.05-0.23,0.05-0.39c0-0.58-0.33-1.06-1.1-1.06
			c-0.86,0-1.55,0.62-1.82,1.44H217.65z"/>
		<path class="st7" d="M226.49,68.78c-1.88,0-3.31-1.19-3.31-3.12c0-2.35,1.98-4.46,4.42-4.46c1.12,0,1.9,0.42,2.45,1.02
			c0.14,0.13,0.26,0.3,0.26,0.54c0,0.36-0.28,0.66-0.66,0.66c-0.18,0-0.35-0.05-0.46-0.2c-0.4-0.49-0.86-0.85-1.74-0.85
			c-1.57,0-2.94,1.51-2.94,3.22c0,1.2,0.83,1.98,2,1.98c0.72,0,1.12-0.21,1.66-0.62c0.12-0.07,0.27-0.16,0.44-0.16
			c0.33,0,0.59,0.27,0.59,0.61c0,0.21-0.1,0.38-0.23,0.48C228.39,68.42,227.52,68.78,226.49,68.78z"/>
		<path class="st7" d="M235.18,68.08c-0.1,0.4-0.37,0.63-0.7,0.63c-0.42,0-0.65-0.3-0.51-0.82l0.62-2.3
			c0.05-0.18,0.08-0.4,0.08-0.55c0-0.55-0.36-0.87-0.96-0.87c-0.71,0-1.3,0.56-1.52,1.38l-0.68,2.53c-0.1,0.4-0.37,0.63-0.7,0.63
			c-0.42,0-0.65-0.3-0.51-0.82l1.67-6.3c0.12-0.4,0.38-0.63,0.71-0.63c0.42,0,0.65,0.3,0.51,0.82l-0.55,2.05
			c0.44-0.43,0.97-0.82,1.68-0.82c1.02,0,1.67,0.64,1.67,1.65c0,0.29-0.08,0.65-0.17,0.97L235.18,68.08z"/>
		<path class="st7" d="M240.05,68.12l0.05-0.2c-0.47,0.52-1.08,0.85-1.82,0.85c-0.94,0-1.66-0.6-1.66-1.51c0-1.27,1.04-2,2.42-2
			c0.65,0,1.22,0.13,1.71,0.27l0.03-0.09c0.03-0.14,0.06-0.29,0.06-0.46c0-0.51-0.36-0.84-1.22-0.84c-0.4,0-0.79,0.07-1.09,0.16
			c-0.07,0.02-0.16,0.03-0.22,0.03c-0.29,0-0.5-0.22-0.5-0.51c0-0.25,0.17-0.43,0.4-0.5c0.51-0.17,1.06-0.26,1.66-0.26
			c1.44,0,2.21,0.63,2.21,1.7c0,0.27-0.05,0.53-0.12,0.81l-0.67,2.51c-0.11,0.4-0.38,0.63-0.71,0.63
			C240.1,68.71,240.02,68.4,240.05,68.12z M240.49,66.55l0.07-0.25c-0.36-0.12-0.84-0.21-1.34-0.21c-0.78,0-1.34,0.41-1.34,1.04
			c0,0.44,0.35,0.74,0.9,0.74C239.55,67.86,240.28,67.29,240.49,66.55z"/>
		<path class="st7" d="M247.05,65.59c0.04-0.18,0.07-0.4,0.07-0.55c0-0.55-0.32-0.87-0.9-0.87c-0.7,0-1.26,0.56-1.48,1.38
			l-0.68,2.53c-0.1,0.4-0.37,0.63-0.7,0.63c-0.42,0-0.65-0.3-0.51-0.82l1.12-4.18c0.1-0.41,0.37-0.64,0.72-0.64
			c0.38,0,0.58,0.25,0.56,0.54l-0.06,0.22c0.44-0.44,0.92-0.82,1.62-0.82c0.82,0,1.32,0.48,1.51,1.11c0.49-0.66,1.18-1.11,2.07-1.11
			c0.99,0,1.64,0.65,1.64,1.65c0,0.29-0.09,0.65-0.18,0.97l-0.65,2.44c-0.1,0.4-0.37,0.63-0.7,0.63c-0.43,0-0.65-0.3-0.51-0.82
			l0.62-2.3c0.04-0.18,0.07-0.4,0.07-0.55c0-0.55-0.32-0.87-0.9-0.87c-0.69,0-1.26,0.56-1.47,1.38l-0.68,2.53
			c-0.1,0.4-0.37,0.63-0.71,0.63c-0.42,0-0.64-0.3-0.5-0.82L247.05,65.59z"/>
		<path class="st7" d="M255.18,63.64l-0.06,0.23c0.5-0.5,1.05-0.85,1.77-0.85c1.23,0,2.15,0.9,2.15,2.36c0,1.96-1.48,3.39-3.06,3.39
			c-0.97,0-1.54-0.48-1.87-1.1l-0.55,2.08c-0.1,0.4-0.37,0.63-0.7,0.63c-0.43,0-0.65-0.3-0.51-0.82l1.57-5.86
			c0.1-0.41,0.37-0.64,0.72-0.64C255.01,63.07,255.2,63.3,255.18,63.64z M254.43,66.3c0,0.81,0.58,1.39,1.39,1.39
			c1.04,0,1.9-0.98,1.9-2.22c0-0.84-0.52-1.36-1.31-1.36C255.4,64.11,254.43,65.12,254.43,66.3z"/>
		<path class="st7" d="M261.06,68.08c-0.11,0.4-0.38,0.63-0.71,0.63c-0.42,0-0.65-0.3-0.51-0.82l1.13-4.18
			c0.1-0.41,0.37-0.64,0.7-0.64c0.43,0,0.65,0.31,0.51,0.83L261.06,68.08z M262.03,62.34c-0.41,0-0.7-0.25-0.62-0.6l0.03-0.13
			c0.08-0.37,0.42-0.59,0.83-0.59c0.41,0,0.69,0.26,0.62,0.6l-0.03,0.13C262.77,62.11,262.43,62.34,262.03,62.34z"/>
		<path class="st7" d="M262.98,66.26c0-1.68,1.44-3.24,3.22-3.24c1.58,0,2.59,1.07,2.59,2.53c0,1.68-1.46,3.23-3.22,3.23
			C263.99,68.78,262.98,67.72,262.98,66.26z M267.54,65.58c0-0.93-0.58-1.46-1.41-1.46c-1.09,0-1.89,1.12-1.89,2.1
			c0,0.93,0.58,1.46,1.41,1.46C266.71,67.69,267.54,66.58,267.54,65.58z"/>
		<path class="st7" d="M271.93,63.62l-0.06,0.22c0.44-0.43,0.97-0.82,1.68-0.82c1.02,0,1.67,0.64,1.67,1.65
			c0,0.29-0.08,0.65-0.17,0.97l-0.65,2.44c-0.1,0.4-0.37,0.63-0.7,0.63c-0.42,0-0.65-0.3-0.51-0.82l0.62-2.3
			c0.05-0.18,0.08-0.4,0.08-0.55c0-0.55-0.36-0.87-0.96-0.87c-0.71,0-1.3,0.56-1.52,1.38l-0.68,2.53c-0.1,0.4-0.37,0.63-0.7,0.63
			c-0.42,0-0.65-0.3-0.51-0.82l1.12-4.18c0.1-0.41,0.37-0.64,0.72-0.64C271.74,63.07,271.94,63.32,271.93,63.62z"/>
		<path class="st7" d="M278.97,67.13c0-0.27-0.25-0.46-0.81-0.69c-0.92-0.38-1.59-0.73-1.59-1.58c0-1.04,0.84-1.84,2.16-1.84
			c0.68,0,1.36,0.26,1.78,0.52c0.18,0.1,0.29,0.26,0.29,0.48c0,0.3-0.23,0.55-0.53,0.55c-0.12,0-0.23-0.05-0.35-0.13
			c-0.41-0.28-0.83-0.44-1.29-0.44c-0.54,0-0.85,0.27-0.85,0.63c0,0.28,0.25,0.46,0.88,0.72c0.84,0.36,1.52,0.74,1.52,1.55
			c0,1.14-0.94,1.87-2.21,1.87c-0.79,0-1.55-0.28-2.13-0.72c-0.16-0.12-0.23-0.26-0.23-0.45c0-0.3,0.23-0.54,0.51-0.54
			c0.15,0,0.27,0.06,0.37,0.14c0.53,0.43,1.06,0.59,1.59,0.59C278.58,67.79,278.97,67.54,278.97,67.13z"/>
		<path class="st7" d="M286.73,63.64l-0.06,0.23c0.5-0.5,1.05-0.85,1.77-0.85c1.23,0,2.15,0.9,2.15,2.36c0,1.96-1.48,3.39-3.06,3.39
			c-0.97,0-1.54-0.48-1.87-1.1l-0.55,2.08c-0.1,0.4-0.37,0.63-0.7,0.63c-0.43,0-0.65-0.3-0.51-0.82l1.57-5.86
			c0.1-0.41,0.37-0.64,0.72-0.64C286.55,63.07,286.74,63.3,286.73,63.64z M285.97,66.3c0,0.81,0.58,1.39,1.39,1.39
			c1.04,0,1.9-0.98,1.9-2.22c0-0.84-0.52-1.36-1.31-1.36C286.95,64.11,285.97,65.12,285.97,66.3z"/>
		<path class="st7" d="M292.6,68.08c-0.11,0.4-0.38,0.63-0.71,0.63c-0.42,0-0.65-0.3-0.51-0.82l1.69-6.3
			c0.1-0.4,0.37-0.63,0.71-0.63c0.42,0,0.64,0.3,0.5,0.82L292.6,68.08z"/>
		<path class="st7" d="M297.6,68.12l0.05-0.2c-0.47,0.52-1.08,0.85-1.82,0.85c-0.94,0-1.66-0.6-1.66-1.51c0-1.27,1.04-2,2.42-2
			c0.65,0,1.22,0.13,1.71,0.27l0.03-0.09c0.03-0.14,0.06-0.29,0.06-0.46c0-0.51-0.36-0.84-1.22-0.84c-0.4,0-0.79,0.07-1.09,0.16
			c-0.07,0.02-0.16,0.03-0.22,0.03c-0.29,0-0.5-0.22-0.5-0.51c0-0.25,0.17-0.43,0.4-0.5c0.51-0.17,1.06-0.26,1.66-0.26
			c1.44,0,2.21,0.63,2.21,1.7c0,0.27-0.05,0.53-0.11,0.81l-0.67,2.51c-0.11,0.4-0.38,0.63-0.71,0.63
			C297.65,68.71,297.57,68.4,297.6,68.12z M298.04,66.55l0.07-0.25c-0.36-0.12-0.84-0.21-1.34-0.21c-0.78,0-1.34,0.41-1.34,1.04
			c0,0.44,0.35,0.74,0.9,0.74C297.1,67.86,297.83,67.29,298.04,66.55z"/>
		<path class="st7" d="M300.7,69.29c0.29,0,0.56-0.16,0.89-0.62l-0.77-4.67c-0.01-0.09-0.02-0.23-0.02-0.31
			c0-0.35,0.27-0.61,0.63-0.61c0.35,0,0.6,0.22,0.63,0.56l0.49,3.62l2.3-3.76c0.15-0.25,0.37-0.42,0.66-0.42
			c0.32,0,0.55,0.19,0.55,0.5c0,0.12-0.06,0.27-0.17,0.44l-3.09,4.8c-0.74,1.14-1.38,1.55-2.25,1.55c-0.29,0-0.58-0.04-0.81-0.16
			c-0.2-0.08-0.39-0.24-0.39-0.55c0-0.3,0.24-0.55,0.51-0.55c0.09,0,0.18,0.03,0.28,0.06C300.33,69.23,300.49,69.29,300.7,69.29z"/>
	</g>
</g>
<g>
	
		<ellipse transform="matrix(1 -2.690314e-03 2.690314e-03 1 -0.1043 0.109)" class="st4" cx="40.46" cy="38.82" rx="31.49" ry="31.49"/>
	
		<ellipse transform="matrix(0.9741 -0.2262 0.2262 0.9741 -7.733 10.1592)" class="st5" cx="40.46" cy="38.82" rx="30.94" ry="30.94"/>
	
		<ellipse transform="matrix(1 -2.829989e-03 2.829989e-03 1 -0.1097 0.1147)" class="st4" cx="40.46" cy="38.82" rx="29.83" ry="29.83"/>
	<path class="st5" d="M47.05,9.42l-0.81,5.94c2.55,0.54,4.92,1.55,7.03,2.93l3.69-4.68c2.81,1.84,5.29,4.14,7.34,6.79l-5.07,3.85
		c1.39,2.12,2.4,4.51,2.94,7.07v-0.09l7.22-0.85c0.78,2.68,1.2,5.51,1.2,8.44c0,0.67-0.02,1.33-0.07,1.98l-8.32-1.14
		c-0.51,2.54-1.49,4.91-2.84,7.03l7.23,5.71c0.38-0.55,0.73-1.11,1.07-1.69c1.33-2.87,2.22-5.98,2.58-9.24
		c-0.26,3.81-1.24,7.44-2.8,10.74c-4.93,9.92-15.17,16.74-26.99,16.74c-16.64,0-30.13-13.49-30.13-30.13c0-2.46,0.3-4.85,0.85-7.14
		c1.25-4.72,3.62-9,6.82-12.52c-3.11,3.71-4.26,6.59-5.78,10.99l9.5,1.08c0.55-2.55,1.56-4.92,2.95-7.03l-6.81-5.17
		c0.68-0.83,1.41-1.61,2.18-2.36c1.81-1.67,3.82-3.11,5.99-4.3l4.64,5.88c2.12-1.38,4.52-2.38,7.09-2.91l-0.76-6.44
		c1.13-0.13,2.28-0.2,3.44-0.2C42.72,8.69,44.93,8.94,47.05,9.42L47.05,9.42z M27.74,39.79c0.79-0.01,1.45-0.02,1.98-0.02
		c0.48,0,1.11,0.01,1.88,0.02c0.01-0.92,0.04-1.87,0.09-2.87c0.05-0.99,0.1-1.73,0.15-2.22c0.05-0.49,0.15-0.86,0.28-1.14
		c0.13-0.28,0.29-0.49,0.48-0.64c0.19-0.15,0.4-0.22,0.65-0.22c0.23,0,0.41,0.06,0.55,0.17c0.14,0.11,0.25,0.27,0.32,0.46
		c0.08,0.19,0.11,0.48,0.11,0.87c0,0.46-0.04,1.36-0.11,2.7c-0.08,1.35-0.14,2.3-0.2,2.87c0.76-0.01,1.43-0.02,1.99-0.02
		c0.55,0,1.17,0.01,1.86,0.02l0.08-2.58c0.03-0.86,0.06-1.55,0.11-2.08c0.05-0.52,0.1-0.9,0.18-1.15c0.1-0.32,0.22-0.59,0.37-0.8
		c0.11-0.16,0.25-0.28,0.4-0.36c0.14-0.07,0.31-0.11,0.5-0.11c0.18,0,0.34,0.04,0.5,0.11c0.15,0.08,0.28,0.21,0.37,0.42
		c0.09,0.2,0.14,0.52,0.14,0.93c0,0.48-0.03,1.33-0.1,2.55c-0.07,1.23-0.13,2.25-0.2,3.06c0.74-0.01,1.44-0.02,2.11-0.02
		c0.55,0,1.12,0.01,1.71,0.02c0.01-0.58,0.05-1.6,0.12-3.05c0.08-1.45,0.13-2.47,0.17-3.07c0.04-0.6,0.06-1.04,0.06-1.34
		c0-0.63-0.16-1.14-0.48-1.53c-0.32-0.39-0.72-0.67-1.21-0.83c-0.5-0.16-1.02-0.24-1.58-0.24c-0.42,0-0.83,0.05-1.23,0.15
		c-0.4,0.1-0.76,0.26-1.07,0.47c-0.31,0.21-0.61,0.52-0.89,0.94c-0.15-0.26-0.28-0.46-0.39-0.6c-0.11-0.14-0.24-0.26-0.39-0.37
		c-0.15-0.11-0.32-0.21-0.52-0.29c-0.2-0.09-0.43-0.15-0.71-0.21c-0.28-0.06-0.58-0.08-0.91-0.08c-0.29,0-0.56,0.02-0.83,0.07
		c-0.26,0.04-0.5,0.1-0.71,0.18c-0.21,0.07-0.42,0.17-0.61,0.3c-0.2,0.12-0.37,0.26-0.51,0.39c-0.14,0.14-0.31,0.33-0.51,0.59
		l0.07-1.28c-0.58,0.01-1.17,0.02-1.78,0.02c-0.54,0-1.16-0.01-1.86-0.02l-0.02,1.56l-0.15,3.62L27.74,39.79L27.74,39.79z
		 M44.92,39.79c0.9-0.01,1.54-0.02,1.91-0.02c0.46,0,1.03,0.01,1.72,0.02l0.04-1.23c0.22,0.26,0.42,0.47,0.59,0.62
		c0.17,0.15,0.39,0.3,0.65,0.44c0.26,0.14,0.54,0.24,0.86,0.31c0.32,0.07,0.64,0.11,0.99,0.11c0.55,0,1.07-0.08,1.54-0.23
		c-0.38-0.31-0.34-0.08-0.83-0.62c-0.3-0.32-0.15-0.51-0.38-0.75c-0.11-0.12-0.18-0.16-0.28-0.3c-0.11-0.14-0.16-0.29-0.23-0.31
		c-0.11,0.1-0.15,0.32-0.29,0.37c-0.16,0.06-0.54-0.19-0.73-0.18c-0.56,0.04-0.19,0.01-0.73-0.05c-0.87-0.09-0.62-0.18-1.03,0.17
		l-0.07-0.04c0,0-0.01,0-0.02-0.01c-0.07-0.01-0.75,0.52-0.52-0.07c0.04-0.1,0.06-0.18,0.11-0.28c0.07-0.14,0.01-0.02,0.09-0.12
		c0.1-0.12,0.11-0.1,0.18-0.23c0.06-0.11-0.01-0.02,0.07-0.1c0.05-0.05,0,0,0.04-0.05c0.02-0.03-0.01-0.01,0.03-0.06
		c0.38,0,0.28,0.2,0.48,0.25c0.32-0.03,0.64-0.04,0.96-0.1c0.12-0.02,0.3-0.06,0.39,0.01l0.1,0.01l0.03,0.02l-0.01-0.02l-0.05-0.17
		l-0.07-0.23c-0.2-0.08-0.43-0.42-0.45-0.61c-0.05-0.45,0.06-0.56-0.12-0.85c-0.1-0.16,0.04-0.08-0.36-0.61
		c-0.06-0.08-0.09-0.21-0.16-0.31c-0.09-0.12-0.31-0.59-0.35-0.61l-0.44-0.03c-0.06,0.02-0.11,0.06-0.16,0.08
		c-0.13,0.05-0.04,0-0.15,0.01c-0.18,0.01-0.23,0.09-0.3,0.17c-0.14,0.16-0.6,0.43-0.79,0.57c-0.41,0.31-0.13,0.29-0.32,0.57
		c-0.29,0.15-0.48-0.33-0.26-0.5c0.71-0.55,0.67-0.77,1.29-1.12c0.16-0.09,0.04-0.09,0.14-0.17l0.44-0.17
		c0.1-0.05,0.08-0.06,0.16-0.13c0.19-0.16,0.44-0.2,0.8-0.37c0.41-0.19,0.09-0.65,0.11-0.88c0.02-0.14,0.1-0.28,0.21-0.37
		c0.45-0.36,1.04,0.28,0.9,0.66c-0.05,0.15-0.07,0.3-0.11,0.46c0.61,0.2,0.47,0.08,0.8,0.55c0.4,0.57,0.7,0.22,0.62,0.7l0.54,0.36
		c0.14,0.11,0.33,0.32,0.51,0.4c0.16,0.07,0.18,0.08,0.28,0.19c0.18,0.18,0.01,0.03,0.23,0.22c0.14,0.13,0.04,0.42,0,0.46
		l-0.19,0.12c0-0.01-0.01,0.01-0.02,0.01l-0.19-0.33c-0.08-0.15-0.01-0.25-0.15-0.34c-0.24-0.16-0.86-0.26-1.22-0.59
		c-0.03-0.03-0.09-0.11-0.11-0.13c-0.12-0.1-0.05,0.03-0.18-0.08c-0.05-0.05-0.03-0.06-0.12-0.12c-0.09-0.05-0.08-0.02-0.16-0.1
		c-0.06-0.06-0.03-0.05-0.13-0.1l0.19,0.64c0.05,0.06,0.11,0.11,0.15,0.22c0.07,0.19,0.1,0.36,0.19,0.55
		c0.12,0.24,0.32,0.98,0.31,1.3c0,0,0,0-0.01,0c0.13,0.15,0.17,0.44,0.17,0.44l0,0l0.01,0.01c0.02,0.07,0.03,0.05,0.05,0.14
		c0.02,0.01,0.01,0,0.03,0.03c0.11,0.13,0.12,0.33,0.25,0.53c0.38,0.56-0.02,0.37,0.48,0.82c0.2,0.18,0.48,0.63,0.75,0.98
		c0.17-0.08,0.33-0.16,0.49-0.26c0.7-0.43,1.26-1.1,1.67-1.99c0.42-0.89,0.63-1.87,0.63-2.94c0-1.06-0.22-1.96-0.66-2.7
		c-0.44-0.74-1.01-1.26-1.71-1.57c-0.7-0.31-1.55-0.47-2.53-0.47c-0.31,0-0.62,0.02-0.94,0.05c-0.31,0.03-0.76,0.1-1.35,0.19
		c0.07-1.2,0.17-2.3,0.31-3.3c-0.61,0.01-1.23,0.02-1.86,0.02c-0.65,0-1.35-0.01-2.09-0.02c0,1.36-0.07,3.38-0.2,6.07
		C45.26,35.42,45.1,37.77,44.92,39.79L44.92,39.79z M16.28,54.96L16.28,54.96l1.12-2.39l7.23-5.71c-1.41-2.15-2.43-4.59-2.95-7.2
		l-8.9,1.22l-1.16,2.96c0.78,4.08,2.4,7.85,4.66,11.13L16.28,54.96L16.28,54.96z M24.3,62.9c3.53,2.36,7.6,3.98,11.97,4.65
		c0.01,0,0.03,0,0.03,0l1.48-11.73c-2.58-0.53-4.99-1.54-7.12-2.93l-5.56,7.33l-0.78,2.66l0,0L24.3,62.9L24.3,62.9z M58.42,62.06
		l0.4-1.86l-5.35-7.47c-2.15,1.45-4.6,2.51-7.22,3.06l1.25,9.12l-0.37,2.29C51.29,66.29,55.12,64.51,58.42,62.06z"/>
	<path class="st6" d="M53.29,45.29v-2.47h-1.21v-0.4h2.87v0.4h-1.21v2.47H53.29L53.29,45.29z M49.34,45.29h2.82v-0.41h-2.37v-0.91
		h1.47v-0.41h-1.47v-0.72h2.24v-0.42h-2.69V45.29L49.34,45.29z M45.78,45.29v-2.87h1.77c0.29,0,0.51,0.06,0.66,0.18
		c0.15,0.12,0.23,0.3,0.23,0.53c0,0.12-0.02,0.22-0.07,0.31c-0.05,0.09-0.12,0.16-0.21,0.22c0.16,0.09,0.28,0.2,0.36,0.33
		c0.08,0.13,0.12,0.27,0.12,0.44c0,0.27-0.09,0.48-0.27,0.63c-0.18,0.15-0.42,0.23-0.74,0.23H45.78L45.78,45.29z M47.68,43.94h-1.45
		v0.94h1.45c0.16,0,0.28-0.04,0.37-0.12c0.09-0.08,0.13-0.2,0.13-0.35c0-0.15-0.04-0.26-0.13-0.35
		C47.96,43.98,47.84,43.94,47.68,43.94L47.68,43.94z M47.53,42.84h-1.3v0.68h1.31c0.14,0,0.25-0.03,0.33-0.09
		c0.07-0.06,0.11-0.14,0.11-0.25c0-0.11-0.04-0.2-0.11-0.25C47.79,42.87,47.68,42.84,47.53,42.84z"/>
	<path class="st4" d="M43.71,45.29v-1.47l-1.31-1.41h0.58l0.95,1.02l0.94-1.02h0.6l-1.32,1.4v1.47H43.71L43.71,45.29z M39.91,44.04
		h1.25l0.81,1.26h0.49l-0.8-1.26c0.21-0.03,0.38-0.13,0.51-0.27c0.13-0.15,0.2-0.33,0.2-0.53c0-0.25-0.08-0.45-0.25-0.59
		c-0.17-0.14-0.4-0.21-0.69-0.21h-1.98v2.87h0.45V44.04L39.91,44.04z M39.91,43.62v-0.78h1.53c0.15,0,0.27,0.03,0.35,0.1
		c0.08,0.07,0.12,0.16,0.12,0.29c0,0.13-0.04,0.22-0.12,0.29c-0.08,0.07-0.2,0.1-0.35,0.1H39.91L39.91,43.62z M36.36,44.04v1.26
		h-0.45v-2.87h1.98c0.29,0,0.52,0.07,0.69,0.21c0.17,0.14,0.25,0.34,0.25,0.59c0,0.2-0.07,0.38-0.2,0.53
		c-0.13,0.15-0.3,0.24-0.51,0.27l0.8,1.26h-0.49l-0.81-1.26H36.36L36.36,44.04z M36.36,43.62h1.53c0.16,0,0.27-0.03,0.35-0.1
		c0.08-0.07,0.12-0.16,0.12-0.29c0-0.13-0.04-0.22-0.12-0.29c-0.08-0.07-0.2-0.1-0.35-0.1h-1.53V43.62L36.36,43.62z M32.63,45.29
		v-2.87h2.69v0.42h-2.24v0.72h1.47v0.41h-1.47v0.91h2.37v0.41H32.63L32.63,45.29z M28.74,45.29v-2.87h0.37l1.18,1.68l1.18-1.68h0.37
		v2.87h-0.45v-2.07l-1.1,1.6l-1.1-1.6v2.07H28.74z"/>
</g>
</svg>
