<?xml version="1.0" encoding="utf-8"?>
<!-- Generator: Adobe Illustrator 18.0.0, SVG Export Plug-In . SVG Version: 6.00 Build 0)  -->
<!DOCTYPE svg PUBLIC "-//W3C//DTD SVG 1.1//EN" "http://www.w3.org/Graphics/SVG/1.1/DTD/svg11.dtd">
<svg version="1.1" id="FULL_COLOUR_LOGO_2" xmlns="http://www.w3.org/2000/svg" xmlns:xlink="http://www.w3.org/1999/xlink" x="0px"
	 y="0px" width="160px" height="160px" viewBox="0 0 160 160" enable-background="new 0 0 160 160" xml:space="preserve">
<g>
	<g>
		<path fill="#FFFFFF" d="M86,100.4l4.6,1.2l0.5-1.8l-4.6-1.2l0.2-1c0.3-1.1,0.7-1.2,1.7-1l3.7,1l0.5-1.9l-3.8-1
			c-1.8-0.5-3.4,0-4,2.1l-1.7,6.4c-0.1,0.5,0.1,0.8,0.5,0.9l1.2,0.3L86,100.4z M76.2,95.5l-0.4-1.9l-6.3,1.3
			c-0.4,0.1-0.7,0.4-0.6,0.9l1.3,6.5c0.4,2.2,2.1,2.7,3.8,2.3l3.8-0.8l-0.4-1.9l-3.7,0.8c-1,0.2-1.4,0-1.6-1.1l-0.2-1l4.6-0.9
			l-0.4-1.9l-4.6,0.9l-0.5-2.3L76.2,95.5z M60.9,108.5c-0.7-0.1-1.2-0.4-1.9-1.2l-3.6-4.4l-1.6,1.3l3.9,4.8c0.8,1,1.7,1.5,2.8,1.6
			c1.2,0.1,2.3-0.2,3.4-1.1c1.1-0.9,1.7-1.9,1.8-3.1c0.1-1.1-0.2-2.1-1-3.1l-3.9-4.8l-1.6,1.3l3.6,4.4c0.7,0.9,0.9,1.4,0.8,2.1
			c-0.1,0.6-0.4,1.2-1,1.7C62.1,108.3,61.4,108.6,60.9,108.5 M102.3,101.1c0.5,0.4,0.4,0.7,0.3,1.1l-3,10.3L98,111l0.6-2l-2-1.5
			l1.7-1.1l0.8,0.6l1-3.5l-6.5,4.2l-1.9-1.1l9-5.8c0.3-0.2,0.7-0.3,1.1,0L102.3,101.1z M62.7,115.6l-1.2-1.1
			c4.4-5.1,11-8.3,18.2-8.3c7.3,0,13.8,3.2,18.2,8.3l-1.2,1.1c-4.1-4.7-10.2-7.7-17-7.7C72.9,107.9,66.8,110.9,62.7,115.6 M51.4,103
			l-1.1-1.1c7.5-7.6,17.9-12.4,29.4-12.4c11.5,0,21.9,4.7,29.4,12.4l-1.1,1.1c-7.2-7.3-17.2-11.9-28.2-11.9
			C68.6,91.1,58.6,95.6,51.4,103"/>
		<g>
			<g>
				<path fill="#FFFFFF" d="M85.1,155.1h4v0.9c-0.7,0.7-1.7,1.3-3,1.3c-2.3,0-3.9-1.3-3.9-4.1c0-2.7,1.8-4.1,3.6-4.1
					c1.6,0,2.7,0.8,3.1,2.2l2.8-0.8c-0.7-2.4-2.6-4.1-5.9-4.1c-3.6,0-6.6,2.6-6.6,6.7c0,4.2,3,6.7,6.7,6.7c2.8,0,4.6-1.1,6-2.9v-4.4
					h-6.8V155.1z"/>
				<polygon fill="#FFFFFF" points="47.4,146.7 44.4,146.7 44.4,159.8 53.6,159.8 53.6,157.1 47.4,157.1 				"/>
				<polygon fill="#FFFFFF" points="57.9,154.5 63.5,154.5 63.5,151.9 57.9,151.9 57.9,149.4 64,149.4 64,146.7 55,146.7 55,159.8 
					64.1,159.8 64.1,157.1 57.9,157.1 				"/>
				<polygon fill="#FFFFFF" points="109,157.1 109,154.5 114.5,154.5 114.5,151.9 109,151.9 109,149.4 115,149.4 115,146.7 
					106,146.7 106,159.8 115.1,159.8 115.1,157.1 				"/>
				<path fill="#FFFFFF" d="M101.3,154.5c0,1.7-0.9,2.8-2.5,2.8c-1.6,0-2.5-1.1-2.5-2.8v-7.7h-3v7.9c0,3.6,2.5,5.3,5.5,5.3
					c3,0,5.5-1.7,5.5-5.3v-7.9h-3V154.5z"/>
				<path fill="#FFFFFF" d="M70.8,146.7l-5.3,13h3.4l0.9-2.5h5.1l0.9,2.5h3.4l-5.3-13H70.8z M70.8,154.6l1.5-4l1.5,4H70.8z"/>
			</g>
			<g>
				<path fill="#FFFFFF" d="M53.7,132.3c0,2.7-1.4,4.4-4,4.4c-2.6,0-4-1.7-4-4.4v-12.1h-4.7v12.4c0,5.7,3.9,8.3,8.6,8.3
					c4.7,0,8.6-2.7,8.6-8.3v-12.4h-4.7V132.3z"/>
				<path fill="#FFFFFF" d="M116.5,127c0-4.4-3.3-6.7-7.3-6.7h-8v20.3h4.7v-6.9h3.3C113.2,133.7,116.5,131.4,116.5,127z
					 M108.9,129.5h-3.1v-5.1h3.1c2.1,0,2.9,1.1,2.9,2.6C111.8,128.4,111,129.5,108.9,129.5z"/>
				<polygon fill="#FFFFFF" points="28.8,132.4 37.5,132.4 37.5,128.2 28.8,128.2 28.8,124.4 38.2,124.4 38.2,120.2 24.1,120.2 
					24.1,140.6 38.4,140.6 38.4,136.4 28.8,136.4 				"/>
				<path fill="#FFFFFF" d="M127.6,120.2h-4.9l-8.3,20.3h5.3l1.5-3.9h8l1.5,3.9h5.3L127.6,120.2z M122.7,132.5l2.4-6.2l2.4,6.2
					H122.7z"/>
				<path fill="#FFFFFF" d="M76.6,126.7c0-4-3.2-6.5-7.4-6.5h-8.1v20.3h4.7v-7.3h2.5l4.1,7.3h5.2l-4.5-8.2
					C75.2,131.2,76.6,129.4,76.6,126.7z M69.3,129.1h-3.5v-4.7h3.5c1.9,0,2.6,1,2.6,2.3C72,128.1,71.3,129.1,69.3,129.1z"/>
				<path fill="#FFFFFF" d="M88.7,119.8c-6,0-9.8,4-9.8,10.6c0,6.6,3.9,10.6,9.8,10.6c6,0,9.8-4,9.8-10.6
					C98.5,123.8,94.6,119.8,88.7,119.8z M88.7,136.8c-2.9,0-5.2-2.1-5.2-6.4c0-4.4,2.3-6.4,5.2-6.4c2.9,0,5.2,2.1,5.2,6.4
					C93.9,134.7,91.6,136.8,88.7,136.8z"/>
			</g>
		</g>
	</g>
	<g>
		<g>
			<path fill="#C6C6C6" d="M82.7,79.9L82.7,79.9c2.7-0.2,5.3-0.7,7.8-1.4v0c0.1,0,0.1-0.1,0.1-0.1c0,0,0,0,0-0.1l0,0
				c-3.2-3.5-8.2-10.6-11.6-17c1.7,6.9,3.2,14.5,3.5,18.5C82.6,79.9,82.6,79.9,82.7,79.9"/>
			<path fill="#C6C6C6" d="M97.1,7.9L97.1,7.9C97.1,7.9,97.1,7.9,97.1,7.9c0-0.1,0-0.2-0.1-0.2l0,0L85,0.8l0,0c0,0,0,0-0.1,0
				c-0.1,0-0.1,0.1-0.2,0.1h0c-0.6,2.6-6.2,28.2,2.8,58.7C84.3,39.7,92.1,17.7,97.1,7.9"/>
			<path fill="#FFFFFF" d="M93.4,77.6C76.5,50.4,79.2,11.9,81.1,0.2h0c0,0,0,0,0,0C81.1,0.1,81,0,80.9,0c0,0,0,0,0,0l0,0
				c-2.2,0.9-17.1,6.9-18.7,7.5c-0.1,0-0.1,0.1-0.1,0.2c0,0,0,0,0,0h0C65.1,21.5,72.8,54.2,93.4,77.6"/>
			<path fill="#FFFFFF" d="M70.3,78.6L70.3,78.6C70.3,78.6,70.3,78.6,70.3,78.6c0,0.1,0,0.2,0.1,0.2c2.9,0.8,6,1.2,9.1,1.3
				c0.1,0,0.2-0.1,0.2-0.2h0c-0.4-6.6-1.9-20.2-7.5-32.3C74,59.8,72,72.6,70.3,78.6"/>
			<path fill="#F18800" d="M65.9,77.3c0.1,0,0.1,0,0.1-0.1l0,0c0.1-0.2,0.2-0.7,0.2-0.9l0,0c0,0,0,0,0,0c0-0.1-0.1-0.1-0.1-0.2l0,0
				C54,70.9,45.9,56.8,45.9,42.7c0-11,4.7-23,12.8-29.2v0c0,0,0-0.1,0-0.1c0,0,0,0,0,0l0,0c0-0.2-0.2-0.6-0.2-0.9h0
				c0-0.1-0.1-0.1-0.2-0.1c0,0-0.1,0-0.1,0c-9.5,6.8-15.6,17.8-15.6,30.4C42.7,58.3,52.3,71.7,65.9,77.3
				C65.9,77.3,65.9,77.3,65.9,77.3"/>
			<path fill="#F18800" d="M100.5,11.5L100.5,11.5C100.5,11.5,100.4,11.5,100.5,11.5c-0.1,0-0.2,0-0.2,0.1l-0.4,0.8c0,0,0,0,0,0.1
				c0,0.1,0,0.1,0.1,0.1l0,0c9,6.1,14.1,18.4,14.1,30.1c0,13.1-6.3,26.1-17.1,31.9l0,0c0,0-0.1,0.1-0.1,0.1c0,0,0,0,0,0.1h0l0.5,0.8
				h0c0,0,0.1,0.1,0.1,0.1c0,0,0.1,0,0.1,0c11.8-6.3,19.8-18.7,19.8-32.9C117.3,29.7,110.6,18.2,100.5,11.5"/>
		</g>
		<g>
			<polygon fill="#FFFFFF" points="107.9,76.6 108.8,76.6 108.8,79.1 109.2,79.1 109.2,76.6 110.1,76.6 110.1,76.2 107.9,76.2 			
				"/>
			<polygon fill="#FFFFFF" points="113,76.2 112,78.7 111.1,76.2 110.6,76.2 110.6,79.1 111,79.1 111,77 111.8,79.1 112.3,79.1 
				113.1,77 113.1,79.1 113.5,79.1 113.5,76.2 			"/>
		</g>
	</g>
</g>
</svg>
